<svg width="26" height="20" viewBox="0 0 26 20" fill="none" xmlns="http://www.w3.org/2000/svg">
<path d="M2.6167 10.3186C2.6167 9.83267 3.01065 9.43872 3.49662 9.43872H12.2958C12.7818 9.43872 13.1757 9.83267 13.1757 10.3186C13.1757 10.8046 12.7818 11.1986 12.2958 11.1986H3.49662C3.01065 11.1986 2.6167 10.8046 2.6167 10.3186Z" fill="white"/>
<path d="M0.857178 5.91922C0.857178 5.43326 1.25113 5.03931 1.73709 5.03931H8.77643C9.26239 5.03931 9.65635 5.43326 9.65635 5.91922C9.65635 6.40519 9.26239 6.79914 8.77643 6.79914H1.73709C1.25113 6.79914 0.857178 6.40519 0.857178 5.91922Z" fill="white"/>
<path d="M25.4245 9.97229L22.7847 3.81287C22.717 3.65456 22.6042 3.51963 22.4605 3.42483C22.3167 3.33003 22.1483 3.27955 21.9761 3.27964H19.3363V1.51981C19.3363 1.28644 19.2436 1.06263 19.0786 0.897614C18.9136 0.732598 18.6898 0.639893 18.4564 0.639893H5.25764C4.77167 0.639893 4.37772 1.03384 4.37772 1.51981C4.37772 2.00577 4.77167 2.39973 5.25764 2.39973H17.5765V13.448C17.1755 13.6808 16.8246 13.9907 16.544 14.3598C16.2634 14.7289 16.0587 15.1499 15.9416 15.5985H10.4122C10.198 14.769 9.6887 14.0461 8.97968 13.5653C8.27066 13.0845 7.41063 12.8788 6.56079 12.9868C5.71096 13.0947 4.92966 13.5089 4.36336 14.1517C3.79705 14.7945 3.48462 15.6217 3.48462 16.4784C3.48462 17.3351 3.79705 18.1623 4.36336 18.8051C4.92966 19.4479 5.71096 19.8621 6.56079 19.97C7.41063 20.078 8.27066 19.8723 8.97968 19.3915C9.6887 18.9107 10.198 18.1878 10.4122 17.3583H15.9416C16.133 18.1135 16.5708 18.7833 17.1856 19.2617C17.8004 19.7402 18.5573 19.9999 19.3363 19.9999C20.1154 19.9999 20.8722 19.7402 21.487 19.2617C22.1019 18.7833 22.5396 18.1135 22.731 17.3583H24.6158C24.8492 17.3583 25.073 17.2656 25.238 17.1006C25.403 16.9356 25.4957 16.7118 25.4957 16.4784V10.319C25.4958 10.1998 25.4715 10.0818 25.4245 9.97229ZM7.01747 18.2382C6.66941 18.2382 6.32916 18.135 6.03976 17.9416C5.75036 17.7483 5.52479 17.4734 5.3916 17.1519C5.2584 16.8303 5.22355 16.4764 5.29145 16.1351C5.35936 15.7937 5.52696 15.4801 5.77308 15.234C6.0192 14.9879 6.33277 14.8203 6.67414 14.7524C7.01552 14.6845 7.36936 14.7193 7.69093 14.8525C8.0125 14.9857 8.28735 15.2113 8.48072 15.5007C8.67409 15.7901 8.77731 16.1303 8.77731 16.4784C8.77684 16.945 8.59128 17.3923 8.26135 17.7223C7.93142 18.0522 7.48407 18.2378 7.01747 18.2382ZM19.3363 5.03948H21.3953L23.2819 9.43906H19.3363V5.03948ZM19.3363 18.2382C18.9882 18.2382 18.648 18.135 18.3586 17.9416C18.0692 17.7483 17.8436 17.4734 17.7104 17.1519C17.5772 16.8303 17.5424 16.4764 17.6103 16.1351C17.6782 15.7937 17.8458 15.4801 18.0919 15.234C18.338 14.9879 18.6516 14.8203 18.993 14.7524C19.3344 14.6845 19.6882 14.7193 20.0098 14.8525C20.3313 14.9857 20.6062 15.2113 20.7996 15.5007C20.9929 15.7901 21.0961 16.1303 21.0961 16.4784C21.0957 16.945 20.9101 17.3923 20.5802 17.7223C20.2503 18.0522 19.8029 18.2378 19.3363 18.2382ZM23.7359 15.5985H22.731C22.5372 14.8448 22.0987 14.1767 21.4844 13.699C20.87 13.2212 20.1145 12.9609 19.3363 12.9587V11.1989H23.7359V15.5985Z" fill="white"/>
</svg>
